<svg fill="none" height="200" viewBox="0 0 200 200" width="200" xmlns="http://www.w3.org/2000/svg" xmlns:xlink="http://www.w3.org/1999/xlink"><clipPath id="a"><path d="m0 0h200v200h-200z"/></clipPath><g clip-path="url(#a)"><path d="m100 200c52.855 0 95.703-42.848 95.703-95.703 0-52.8555-42.848-95.70325-95.703-95.70325-52.8554 0-95.70312 42.84775-95.70312 95.70325 0 52.855 42.84772 95.703 95.70312 95.703z" fill="#008ca9"/><path d="m84.6855 148.018c4.9415 0 9.4938 2.485 12.1778 6.648.066.103.1769.169.2988.178.0098.001.0199.001.0297.001.1117 0 .2184-.048.2926-.132 4.0236-4.551 9.8076-7.161 15.8696-7.161 2.066 0 4.061.302 5.95.856l-6.971-17.869h-24.6666l-7.0473 18.064c1.2911-.379 2.6547-.585 4.0664-.585z" fill="#d9eafc"/><path d="m90.882 130.539h-3.2156l-7.0473 18.064c1.0969-.321 2.2485-.51 3.4352-.562z" fill="#ee3b3f"/><path d="m77.182 166.481c.0157.103.0715.196.1555.257.0672.05.1484.076.2309.076.0203 0 .041-.001.0613-.005 1.3945-.221 2.7949-.334 4.1621-.334 6.6793 0 13.0508 2.51 17.9418 7.067.075.07.1707.104.2664.104.096 0 .191-.034.266-.104 4.891-4.557 11.263-7.067 17.942-7.067 1.367 0 2.768.113 4.162.334.021.004.041.005.062.005.082 0 .163-.026.23-.076.084-.061.14-.154.156-.257.722-4.859 2.55-9.46 5.294-13.476-3.859-3.622-9.047-5.845-14.757-5.845-6.437 0-12.211 2.823-16.1628 7.294-2.6469-4.106-7.257-6.828-12.5059-6.828-5.0347 0-9.4816 2.504-12.1726 6.333 2.3945 3.785 4.0031 8.043 4.6683 12.522z" fill="#ee3b3f"/><path d="m77.569 166.424c-2.3508-15.824-15.9903-27.965-32.4684-27.965-11.4395 0-21.5082 5.853-27.3848 14.725 8.9977 15.112 22.041 27.53 37.6344 35.77 1.6676-11.549 10.7219-20.703 22.2188-22.53z" fill="#f1c34e"/><path d="m48.3787 142.495c8.3719 0 16.0461 2.97 22.041 7.905-6.0207-7.291-15.1246-11.941-25.3191-11.941-11.4395 0-21.5082 5.853-27.3848 14.725.7762 1.304 1.5848 2.586 2.4203 3.849 6.2965-8.799 16.5969-14.538 28.2426-14.538z" fill="#f90"/><path d="m154.9 138.459c-16.478 0-30.118 12.141-32.468 27.965 11.497 1.827 20.551 10.981 22.218 22.53 15.593-8.24 28.637-20.658 37.635-35.77-5.877-8.872-15.946-14.725-27.385-14.725z" fill="#f1c34e"/><path d="m156.885 138.52c-.657-.039-1.319-.061-1.986-.061-16.478 0-30.118 12.141-32.468 27.965 1.225.195 2.42.478 3.583.833 3.267-14.953 15.549-26.532 30.871-28.737z" fill="#f90"/><path d="m118.208 166.086c-7.038 0-13.436 2.725-18.2082 7.171-4.7723-4.446-11.1703-7.171-18.2078-7.171-13.4512 0-24.5781 9.94-26.4434 22.874 13.3313 7.046 28.5235 11.041 44.6512 11.041 16.1282 0 31.3202-3.995 44.6512-11.041-1.865-12.934-12.992-22.874-26.443-22.874z" fill="#f1c34e"/><path d="m87.3775 169.406c3.6856 0 7.2028.717 10.4219 2.016-4.4621-3.347-10-5.338-16.0074-5.338-13.4512 0-24.5781 9.94-26.4434 22.874 1.5715.831 3.1696 1.617 4.791 2.361 2.7372-12.529 13.8872-21.913 27.2379-21.913z" fill="#ff8600"/><path d="m108.799 130.539h-5.905l.753 5.961c.203 1.606 1.671 2.741 3.274 2.539 1.605-.203 2.742-1.668 2.539-3.273z" fill="#aec1ed"/><path d="m91.1996 130.539-1.5492 12.258c-.2028 1.605.9339 3.071 2.5394 3.274.1246.016.2484.024.3711.024 1.4543-.001 2.716-1.083 2.9031-2.563l1.6422-12.993z" fill="#aec1ed"/><path d="m69.9641 76.452c0-3.1856.1195-6.3625.3429-9.5165-9.3984 5.2926-15.8734 17.0833-15.8734 30.7336 0 7.2099 1.7926 14.0849 5.1836 19.8829.3183.544.8945.856 1.493.856.2187 0 .4402-.042.6531-.129 4.4566-1.822 9.2191-2.758 14.1578-2.797-3.8996-12.003-5.957-25.4074-5.957-39.03z" fill="#fe3745"/><path d="m58.8625 97.6691c0-11.2746 4.4199-21.2761 11.2531-27.3996.0524-1.1136.1129-2.2254.1914-3.334-9.3984 5.2926-15.8734 17.0833-15.8734 30.7336 0 7.2099 1.7926 14.0849 5.1836 19.8829.3183.544.8945.856 1.493.856.2187 0 .4402-.042.6531-.129.7344-.3 1.4805-.567 2.2308-.819-3.3566-5.779-5.1316-12.619-5.1316-19.7909z" fill="#b7092b"/><path d="m129.693 66.9355c.223 3.1543.343 6.3313.343 9.5165 0 13.6222-2.058 27.027-5.958 39.03 4.939.039 9.701.975 14.158 2.797.213.087.435.129.653.129.599 0 1.175-.312 1.493-.856 3.391-5.798 5.184-12.673 5.184-19.8829 0-13.6503-6.475-25.441-15.873-30.7336z" fill="#fe3745"/><path d="m85.042 119.971v9.005c0 1.074.8789 1.953 1.9531 1.953h26.0089c1.074 0 1.953-.879 1.953-1.953v-9.005z" fill="#fe3745"/><path d="m91.6853 128.976v-9.005h-6.6433v9.005c0 1.074.8789 1.953 1.9531 1.953h6.6434c-1.0742 0-1.9532-.879-1.9532-1.953z" fill="#b7092b"/><path d="m123.771 35.2812h-47.5427c-4.357 12.5598-6.6551 26.6965-6.6551 41.1715 0 15.0477 2.4957 29.8383 7.2168 42.7733.2493.682.8977 1.136 1.6239 1.136h43.1711c.727 0 1.375-.454 1.624-1.136 4.721-12.935 7.217-27.7256 7.217-42.7733 0-14.475-2.298-28.6113-6.655-41.1715z" fill="#eef6ff"/><path d="m82.327 119.226c-4.7215-12.935-7.2168-27.7256-7.2168-42.7733 0-14.475 2.298-28.6117 6.655-41.1715h-5.5359c-4.357 12.5598-6.6551 26.6965-6.6551 41.1715 0 15.0477 2.4957 29.8383 7.2168 42.7733.2492.682.8977 1.136 1.6238 1.136h5.536c-.7262 0-1.3746-.454-1.6238-1.136z" fill="#d9eafc"/><path d="m88.7422 35.2812v6.4821c0 1.0742.8789 1.9531 1.9531 1.9531h18.6097c1.075 0 1.954-.8789 1.954-1.9531v-6.4821z" fill="#ea2a3d"/><path d="m93.1711 41.7633v-6.4821h-4.4289v6.4821c0 1.0742.8789 1.9531 1.9531 1.9531h4.4289c-1.0742 0-1.9531-.8789-1.9531-1.9531z" fill="#b7092b"/><path d="m99.9998 0c-.3855 0-.7707.128516-1.0879.385156-8.7258 7.066014-16.0758 17.784744-21.2543 30.997644-.5508 1.4059-1.0683 2.8395-1.5648 4.2883h47.8132c-.496-1.4488-1.014-2.8824-1.564-4.2883-5.179-13.2129-12.529-23.93163-21.255-30.997644-.316-.25664-.702-.385156-1.0872-.385156z" fill="#fe3745"/><path d="m102.768 1.80781c-.555-.48867-1.114-.96406-1.68-1.422654-.317-.25664-.703-.385156-1.0882-.385156-.3855 0-.7707.128516-1.0879.385156-8.7258 7.066014-16.0758 17.784744-21.2543 30.997644-.5508 1.4059-1.0683 2.8395-1.5648 4.2883h5.5359c.4965-1.4488 1.0141-2.8824 1.5649-4.2883 4.8429-12.3558 11.5843-22.5285 19.5744-29.57499z" fill="#b7092b"/><path d="m100 90.6055c11.007 0 19.93-8.9229 19.93-19.9297 0-11.0069-8.923-19.9297-19.93-19.9297-11.0069 0-19.9297 8.9228-19.9297 19.9297 0 11.0068 8.9228 19.9297 19.9297 19.9297z" fill="#445ea0"/><path d="m100 83.4617c7.062 0 12.786-5.7243 12.786-12.7855 0-7.0613-5.724-12.7856-12.786-12.7856-7.0609 0-12.7852 5.7243-12.7852 12.7856 0 7.0612 5.7243 12.7855 12.7852 12.7855z" fill="#69cdff"/><path d="m91.902 70.6762c0 6.2605 4.5003 11.4668 10.442 12.5679-.76.1407-1.542.218-2.344.218-7.0613 0-12.7852-5.7246-12.7852-12.7859 0-7.0614 5.7243-12.7856 12.7852-12.7856.801 0 1.584.0774 2.344.218-5.9417 1.1012-10.442 6.307-10.442 12.5676z" fill="#52bbef"/><path d="m43.0217 69.8195c-.4481 0-.852-.2699-1.0235-.6839-2.1808-5.2653-3.7886-6.8727-9.0539-9.0536-.414-.1714-.6836-.5754-.6836-1.0234s.27-.852.6836-1.0234c5.2657-2.1817 6.8731-3.7895 9.0539-9.0543.1715-.4141.5754-.684 1.0235-.684.448 0 .8519.2699 1.0234.684 2.1813 5.2648 3.7891 6.8726 9.0543 9.0543.4141.1714.684.5754.684 1.0234s-.2699.8523-.684 1.0234c-5.2652 2.1805-6.873 3.7883-9.0543 9.0536-.1715.414-.5754.6839-1.0234.6839z" fill="#ffd00d"/><path d="m44.2127 66.9199c-2.1809-5.2652-3.7887-6.8726-9.0539-9.0535-.2602-.1074-.4629-.3074-.5781-.5519-.5055.2367-1.0446.4742-1.6364.7195-.414.1715-.6836.5754-.6836 1.0234 0 .4481.27.8524.6836 1.0235 5.2653 2.1808 6.8731 3.7882 9.0539 9.0535.1715.414.5754.684 1.0235.684.448 0 .8519-.27 1.0234-.684.2449-.5918.4828-1.1309.7192-1.636-.2442-.1152-.4438-.3183-.5516-.5785z" fill="#ffaf10"/><path d="m160.73 78.6738c-.393 0-.748-.2371-.899-.6011-1.917-4.6282-3.33-6.0411-7.958-7.9579-.364-.1503-.602-.5058-.602-.8996 0-.3941.238-.7488.602-.8996 4.628-1.9176 6.041-3.3308 7.958-7.9586.151-.364.506-.6011.899-.6011.394 0 .749.2371.9.6011 1.917 4.6282 3.331 6.041 7.959 7.9586.364.1508.601.5055.601.8996 0 .3938-.237.7489-.601.8996-4.628 1.9168-6.042 3.3297-7.959 7.9579-.15.3636-.505.6011-.9.6011z" fill="#fff"/><path d="m161.777 76.125c-1.917-4.6281-3.33-6.041-7.959-7.9582-.228-.0945-.407-.2699-.508-.4852-.444.2079-.918.4168-1.438.6325-.364.1507-.601.5054-.601.8996 0 .3937.237.7488.601.8996 4.628 1.9168 6.041 3.3297 7.958 7.9578.151.3641.506.6012.899.6012.394 0 .749-.2371.9-.6012.215-.5199.424-.9941.633-1.4383-.215-.1008-.39-.2793-.485-.5078z" fill="#d9eafc"/><path d="m150.574 37.5277c-.459 0-.872-.2765-1.048-.7004-2.234-5.3929-3.88-7.0394-9.273-9.2726-.424-.1754-.7-.5895-.7-1.0481 0-.4593.276-.8726.7-1.0484 5.393-2.2344 7.04-3.8809 9.273-9.273.176-.4243.589-.7008 1.048-.7008s.873.2765 1.049.7008c2.234 5.3925 3.88 7.039 9.273 9.273.424.1758.7.5891.7 1.0484 0 .4586-.276.8727-.7 1.0481-5.393 2.2332-7.039 3.8801-9.274 9.2726-.175.4239-.589.7004-1.048.7004z" fill="#ff9518"/><path d="m151.794 34.5586c-2.234-5.3926-3.881-7.0391-9.274-9.2727-.266-.1101-.474-.3148-.592-.5652-.517.2426-1.07.4859-1.676.7367-.424.1758-.7.5891-.7 1.0485 0 .4586.276.8726.7 1.048 5.393 2.2336 7.04 3.8801 9.273 9.2727.176.4238.589.7004 1.048.7004s.873-.2766 1.049-.7004c.251-.6063.494-1.1586.736-1.6758-.25-.118-.454-.3258-.564-.5922z" fill="#ef8318"/></g></svg>